Patient4_TMGait_0pt4_03_right_42_EMG.mot
version=1
nRows=26
nColumns=33
inDegrees=no
endheader
time	1LAddLong	2LGlutMax	3LGlutMed	4LIliopsoas	5LSemiMemb	6LBicFemLong	7LRecFem	8LVastMed	9LVastLat	10LGasMed	11LTibAnt	12lTibPost	13LPeroneusLong	14LSol	15LExtDigLong	16LFlexDigLong	17RAddLong	18RGlutMax	19RGlutMed	20RIliopsoas	21RSemiMemb	22RBicFemLong	23RRecFem	24RVastMed	25RVastLat	26RGasMed	27RTibAnt	28RTibPost	29RPeroneusLong	30RSol	31RExtDigLong	32RFlexDigLong
56.4	0.002136	-0.096436	0.13763	0.006866	0.02243	-0.007782	-0.066223	0.000458	0.18494	0.18158	-0.021667	-0.055695	0.13168	-0.038757	-0.037537	-0.058441	0.002136	-0.047913	0.021362	0.028381	-0.063477	0.10483	-0.023804	-0.015869	0.014801	0.25452	0.013275	0.002441	0.037994	-0.039368	-0.000153	0.010071
56.401	-0.005951	-0.10361	0.080261	0.00351	0.010071	0.009155	-0.045013	-0.014954	0.003052	0.20111	-0.026245	-0.067596	0.18784	0.14664	-0.084686	-0.2002	0.004578	-0.089569	0.051727	0.053253	-0.039368	0.093689	-0.06073	-0.05249	0.029755	0.29175	0.008698	0.001984	0.068817	-0.048523	-0.003662	0.013885
56.402	0.000916	-0.094604	-0.044708	0.00946	0.002136	0.012054	0.006866	-0.018005	-0.17639	0.16678	0.00351	0.067444	0.10407	-0.1181	-0.046082	0.17746	0.010834	-0.073242	-0.14908	-0.024872	-0.036621	0.10635	-0.039368	-0.037537	0.028076	0.30945	0.018005	0.002441	0.059509	-0.029297	-0.001831	0.005798
56.403	-0.001526	-0.1001	-0.1178	0.019836	0.014038	0.020599	0.044708	-0.024567	-0.15091	0.063934	0.029602	0.16144	0.086823	-0.14694	-0.026245	0.13657	0.0177	-0.077057	-0.16708	-0.014496	-0.033417	0.11307	-0.021057	-0.066986	0.014954	0.30884	0.059814	-0.002289	-0.01236	0.053101	-0.003815	0.015869
56.404	0.00412	-0.092163	-0.067139	0.003967	0.014191	-0.00412	0.057068	-0.010376	-0.06424	-0.10346	0.027618	-0.092316	0.085144	0.1442	-0.027466	-0.18341	0.004425	-0.095825	-0.042877	0.10239	-0.029297	0.13657	-0.044708	-0.032959	0.037384	0.30884	0.080109	-0.002136	-0.086212	0.044098	-0.002136	0.011902
56.405	0.006866	-0.078888	0.006866	-0.003967	0.01358	0.001526	0.068054	-0.007477	-0.033112	-0.11597	0.027008	-0.048523	0.070343	0.1088	-0.007935	0.025482	-0.000763	-0.045471	0.077362	0.078583	-0.009613	0.13351	-0.008087	-0.073853	0.019531	0.28931	0.17227	-0.002747	-0.059052	0.041199	-0.002899	0.01709
56.406	0.011139	-0.072327	0.057373	0.027771	0.018616	0.001678	0.074921	-0.011749	0.012207	-0.083466	0.01297	-0.058746	0.025177	0.20783	-0.00885	0.037537	-0.00946	-0.078583	0.050812	-0.024109	-0.049744	0.15045	-0.052948	-0.070953	0.031433	0.27252	0.27405	-0.007324	-0.064697	0.010223	-0.000153	0.005341
56.407	0.008087	-0.070648	0.1062	0.021057	0.014191	0.011292	0.059662	0.002441	0.026398	-0.062561	0	-0.027618	0.012207	0.18051	0.020142	-0.052948	-0.028229	-0.063934	-0.080414	-0.15945	-0.011597	0.13458	-0.037079	0.00824	0.02655	0.24582	0.26489	-0.003967	-0.077972	0.039673	-0.003967	0.014343
56.408	-0.005188	-0.068054	0.14832	0.033264	0.018005	-0.017548	0.063171	-0.000916	0.051422	-0.053101	-0.066833	0.001526	-0.002747	0.11963	0.004578	0.093079	-0.02655	-0.066376	-0.28732	-0.09079	0.045929	0.11871	-0.023651	-0.017853	0.010223	0.22171	0.16983	0.001831	-0.056152	-0.031891	-0.007019	0.016022
56.409	0.006561	-0.046539	0.13138	0.00473	0.018005	0.008392	0.053253	-0.001984	0.041656	-0.036926	-0.077667	0.010834	-0.032806	0.12207	-0.00412	0.045166	-0.014954	-0.023041	-0.616	0.0354	0.000305	0.10712	-0.019226	-0.029144	0.008698	0.15869	0.1329	-0.004578	0.012054	-0.06897	-0.002136	0.011139
56.41	-0.000916	-0.044098	0.079956	-0.007935	0.016174	0.003052	0.06073	0.001678	0.029602	-0.015564	-0.002747	0.004425	-0.086212	-0.13825	0.007782	-0.007019	-0.003967	-0.000458	-0.85892	0.046387	-0.016174	0.085449	-0.015869	-0.020752	0.0383	0.11169	0.057678	-0.00061	0.022583	-0.073242	-0.001373	0.017242
56.411	0.004578	-0.074921	0.014648	-0.014343	0.013733	-0.011139	0.074463	0.001068	0.026703	0.000763	0.15243	0.006256	-0.10544	-0.32852	0.054169	-0.014191	-0.007324	0.036621	-0.69794	0.13214	-0.000153	0.10895	-0.024719	-0.041962	0.029297	0.071106	0.083771	-0.010529	-0.006104	-0.045013	-0.003967	0.014343
56.412	0.004883	-0.050354	-0.030212	-0.023804	0.016022	0.005646	0.064392	0.002136	0.037842	-0.012512	0.2269	0.007477	-0.053253	-0.29907	0.089417	-0.020294	-0.007782	0.030365	-0.32638	0.1593	-0.00473	0.1004	-0.083466	-0.026703	0.022583	0.037689	0.27084	-0.007324	-0.069427	-0.023651	0	0.015411
56.413	0.010071	-0.066986	-0.038605	-0.002136	0.018616	-0.007019	0.074921	0.003204	0.03067	-0.043182	0.065765	0.007629	0.057373	0.037231	0.11139	-0.011749	-0.021057	-0.017548	0.34973	0.080566	-0.002289	0.12054	-0.14053	-0.02243	0.025177	0.013123	-0.064697	-0.008545	0.02121	-0.045624	0.000458	0.020142
56.414	0.007324	-0.04425	-0.060577	-0.014343	0.015106	-0.002136	0.06485	-0.00061	0.033417	-0.048218	0.069427	0.012512	0.079956	0.33768	0.28229	-0.018158	-0.00946	0.009613	0.83481	-0.001373	0.035706	0.074615	-0.12863	-0.077515	0.019989	-0.010071	-0.15015	-0.004425	0.06073	-0.071259	0.00061	0.023041
56.415	0.009003	-0.064545	-0.028534	-0.011597	0.025177	-0.008087	0.06134	-0.003204	0.035248	-0.024261	-0.029449	0.006409	0.04364	0.36163	0.21622	-0.023041	0.013733	-0.006104	0.64117	0.028687	0.063629	0.069427	-0.13046	-0.060577	0.001831	-0.030823	-0.061798	-0.004578	0.41534	-0.074005	-0.002747	0.018768
56.416	0.010529	-0.078583	0.032349	-0.014343	0.016785	0.00946	0.067596	0.014954	0.030975	-0.011597	-0.18433	0.00412	0.027924	0.27283	-0.10452	-0.017395	0.030365	-0.026855	0.56213	-0.018158	0.064545	0.084991	-0.12009	-0.10025	0.015564	-0.040894	-0.091705	-0.005341	-0.40436	-0.10254	-0.000305	0.020599
56.417	0.002594	-0.05722	-0.00061	0	0.01236	0.005341	0.058594	0.00946	0.028229	-0.000305	-0.23636	0.016022	-0.025177	0.14053	-0.004272	-0.016174	0.036469	-0.049286	0.94223	0.001526	0.01358	0.15213	-0.085449	-0.091705	0.028534	-0.052643	-0.18509	0.004883	-0.53848	-0.065918	-0.001526	0.010986
56.418	0.009766	-0.01236	0.041809	0.01709	0.011444	-0.002747	0.046082	-0.003052	0.035706	-0.023804	-0.18524	0.003052	0.049591	0.091553	-0.19669	-0.015106	0.001526	-0.04425	0.26657	-0.098877	-0.089722	0.29984	-0.064545	-0.038605	0.027466	-0.045776	0.10941	-0.004272	-0.11017	-0.095062	-0.000458	0.005341
56.419	0.006561	-0.023651	0.11612	0.043488	0.026855	0.005341	0.052643	0.003662	0.033722	-0.027466	-0.098877	0.000458	0.02121	0.04715	-0.39917	-0.004883	-0.025635	-0.058136	0.015717	-0.076294	-0.16892	0.38132	-0.019836	0.002441	0.03067	-0.065002	0.075073	-0.008545	0.58731	-0.081329	-0.001984	0.004578
56.42	0.003815	-0.041504	0.17242	0.026245	0.023041	0.012665	0.067596	-0.000305	0.036774	-0.044556	-0.07019	0.002899	-0.010681	-0.006561	-0.43213	-0.01709	-0.031738	-0.034637	0.06546	-0.053558	-0.12878	0.40161	-0.017548	0.005493	0.032196	-0.077209	0.019073	-0.007782	0.60974	0.041351	-0.001831	-0.001221
56.421	0.012207	-0.08255	0.032806	0.012512	0.021057	-0.009918	0.080261	-0.013275	0.03418	-0.070038	0.034637	0.004272	-0.017395	0.005341	-0.22736	0.00412	-0.020294	-0.063782	-0.19241	0.0383	-0.079803	0.39002	0.065765	0.007477	0.052185	-0.072784	0.013733	-0.007019	0.22995	0.089569	0.003815	-0.01297
56.422	0.011444	-0.046539	0.054474	0.005341	0.017395	0	0.067902	0.002747	0.035553	-0.10284	0.14023	0.005341	-0.045166	0.037689	0.078278	-0.014954	0.007935	-0.058441	-0.22797	0.17288	-0.032043	0.39291	0.016785	0.030518	0.043488	-0.075684	-0.040894	-0.007935	-0.54886	0.071259	0.000153	-0.00061
56.423	0.009613	-0.048676	0.065002	-0.013733	0.013733	-0.010681	0.077667	0.005341	0.033722	-0.093079	0.22614	-0.036469	-0.055389	0.007629	0.17868	-0.015106	0.025787	-0.039215	-0.036469	0.15152	0.049591	0.38361	0.00824	0.037842	0.014648	-0.083923	-0.035095	-0.012665	-0.65155	-0.05127	-0.002899	-0.011444
56.424	0.005035	-0.053253	0.005341	-0.023804	0.012054	0.005798	0.070496	-0.002289	0.035706	-0.049896	0.15488	0.010681	-0.085297	-0.012207	0.094147	-0.005188	0.046234	-0.055542	-0.41473	0.093231	-0.009766	0.35278	-0.031433	-0.006866	0.028534	-0.080261	-0.004578	-0.009155	-0.56915	-0.041809	0.003052	-0.014038
56.425	0.005798	-0.048065	0.076447	0.012054	0.017395	-0.002136	0.061493	0.007935	0.02655	-0.002747	-0.10605	-0.014496	-0.050964	0.026855	0.045929	0.000916	0.050507	-0.02655	-1.1467	0.084686	-0.08728	0.38605	-0.074615	-0.012665	0.046082	-0.078583	0.046844	-0.007324	-0.019379	-0.020294	-0.003967	-0.008698
